<svg id="visual" viewBox="0 0 900 600" width="900" height="600" xmlns="http://www.w3.org/2000/svg" xmlns:xlink="http://www.w3.org/1999/xlink" version="1.1"><path d="M0 334L25 339.2C50 344.3 100 354.7 150 368.7C200 382.7 250 400.3 300 399.5C350 398.7 400 379.3 450 359.8C500 340.3 550 320.7 600 322.8C650 325 700 349 750 357.3C800 365.7 850 358.3 875 354.7L900 351L900 601L875 601C850 601 800 601 750 601C700 601 650 601 600 601C550 601 500 601 450 601C400 601 350 601 300 601C250 601 200 601 150 601C100 601 50 601 25 601L0 601Z" fill="#4facf7"></path><path d="M0 437L25 438.7C50 440.3 100 443.7 150 437.3C200 431 250 415 300 410.3C350 405.7 400 412.3 450 419C500 425.7 550 432.3 600 435.8C650 439.3 700 439.7 750 432.3C800 425 850 410 875 402.5L900 395L900 601L875 601C850 601 800 601 750 601C700 601 650 601 600 601C550 601 500 601 450 601C400 601 350 601 300 601C250 601 200 601 150 601C100 601 50 601 25 601L0 601Z" fill="#1a96fd"></path><path d="M0 434L25 433.3C50 432.7 100 431.3 150 438.8C200 446.3 250 462.7 300 458.5C350 454.3 400 429.7 450 418.5C500 407.3 550 409.7 600 423.5C650 437.3 700 462.7 750 475.3C800 488 850 488 875 488L900 488L900 601L875 601C850 601 800 601 750 601C700 601 650 601 600 601C550 601 500 601 450 601C400 601 350 601 300 601C250 601 200 601 150 601C100 601 50 601 25 601L0 601Z" fill="#007dff"></path><path d="M0 479L25 482.7C50 486.3 100 493.7 150 494.8C200 496 250 491 300 487.3C350 483.7 400 481.3 450 484.2C500 487 550 495 600 500.7C650 506.3 700 509.7 750 513.2C800 516.7 850 520.3 875 522.2L900 524L900 601L875 601C850 601 800 601 750 601C700 601 650 601 600 601C550 601 500 601 450 601C400 601 350 601 300 601C250 601 200 601 150 601C100 601 50 601 25 601L0 601Z" fill="#1b5fff"></path><path d="M0 518L25 521.2C50 524.3 100 530.7 150 535C200 539.3 250 541.7 300 547C350 552.3 400 560.7 450 556.7C500 552.7 550 536.3 600 531.2C650 526 700 532 750 538.3C800 544.7 850 551.3 875 554.7L900 558L900 601L875 601C850 601 800 601 750 601C700 601 650 601 600 601C550 601 500 601 450 601C400 601 350 601 300 601C250 601 200 601 150 601C100 601 50 601 25 601L0 601Z" fill="#4e34f7"></path></svg>